<svg width="28" height="9" viewBox="0 0 28 9" fill="none" xmlns="http://www.w3.org/2000/svg">
<path d="M3.96662 3.83452V4.89276H0.692472V3.83452H3.96662ZM7.83292 8.09943C7.35943 8.09943 6.93567 8.01065 6.56161 7.8331C6.18756 7.65317 5.89045 7.40696 5.67028 7.09446C5.45247 6.78196 5.33647 6.42448 5.32227 6.02202H6.60067C6.62435 6.32031 6.75337 6.56416 6.98775 6.75355C7.22212 6.94058 7.50385 7.03409 7.83292 7.03409C8.09097 7.03409 8.32061 6.97491 8.52184 6.85653C8.72307 6.73816 8.88169 6.57363 8.99769 6.36293C9.1137 6.15223 9.17051 5.91193 9.16815 5.64205C9.17051 5.36742 9.11251 5.12358 8.99414 4.91051C8.87577 4.69744 8.7136 4.53054 8.50763 4.4098C8.30167 4.28669 8.06493 4.22514 7.79741 4.22514C7.5796 4.22277 7.36535 4.26302 7.15465 4.34588C6.94395 4.42874 6.77705 4.53764 6.65394 4.67259L5.46431 4.47727L5.84428 0.727273H10.063V1.82812H6.93448L6.72496 3.75639H6.76758C6.90252 3.59777 7.0931 3.46638 7.33931 3.36222C7.58552 3.25568 7.85541 3.20241 8.14897 3.20241C8.58931 3.20241 8.9823 3.30658 9.32795 3.51491C9.67359 3.72088 9.94585 4.00497 10.1447 4.36719C10.3436 4.7294 10.443 5.1437 10.443 5.61009C10.443 6.09067 10.3317 6.51918 10.1092 6.8956C9.88903 7.26965 9.58245 7.56439 9.18945 7.77983C8.79883 7.9929 8.34665 8.09943 7.83292 8.09943ZM12.1946 8.07812C11.9792 8.07812 11.7945 8.00237 11.6406 7.85085C11.4867 7.69934 11.411 7.51468 11.4134 7.29688C11.411 7.08381 11.4867 6.90152 11.6406 6.75C11.7945 6.59848 11.9792 6.52273 12.1946 6.52273C12.4029 6.52273 12.584 6.59848 12.7379 6.75C12.8942 6.90152 12.9735 7.08381 12.9759 7.29688C12.9735 7.44129 12.9356 7.57268 12.8622 7.69105C12.7912 7.80942 12.6965 7.90412 12.5781 7.97514C12.4621 8.0438 12.3343 8.07812 12.1946 8.07812ZM16.6939 8.13849C16.1091 8.13849 15.6072 7.99053 15.1882 7.6946C14.7715 7.39631 14.4508 6.96662 14.2259 6.40554C14.0033 5.84209 13.892 5.16383 13.892 4.37074C13.8944 3.57765 14.0069 2.90294 14.2294 2.34659C14.4543 1.78788 14.7751 1.36174 15.1918 1.06818C15.6108 0.774621 16.1115 0.627841 16.6939 0.627841C17.2763 0.627841 17.777 0.774621 18.196 1.06818C18.6151 1.36174 18.9358 1.78788 19.1584 2.34659C19.3833 2.9053 19.4957 3.58002 19.4957 4.37074C19.4957 5.16619 19.3833 5.84564 19.1584 6.40909C18.9358 6.97017 18.6151 7.39867 18.196 7.6946C17.7794 7.99053 17.2786 8.13849 16.6939 8.13849ZM16.6939 7.02699C17.1484 7.02699 17.5071 6.80327 17.7699 6.35582C18.035 5.90601 18.1676 5.24432 18.1676 4.37074C18.1676 3.79309 18.1072 3.30777 17.9865 2.91477C17.8658 2.52178 17.6953 2.22585 17.4751 2.02699C17.255 1.82576 16.9946 1.72514 16.6939 1.72514C16.2417 1.72514 15.8842 1.95005 15.6214 2.39986C15.3587 2.8473 15.2261 3.50426 15.2237 4.37074C15.2214 4.95076 15.2794 5.43845 15.3977 5.83381C15.5185 6.22917 15.6889 6.52746 15.9091 6.72869C16.1293 6.92756 16.3909 7.02699 16.6939 7.02699ZM24.5641 6.63636V6.25284C24.5641 5.97112 24.6233 5.71188 24.7417 5.47514C24.8624 5.2384 25.0376 5.04782 25.2672 4.90341C25.4969 4.759 25.775 4.68679 26.1017 4.68679C26.4379 4.68679 26.7196 4.759 26.9469 4.90341C27.1742 5.04545 27.3458 5.23485 27.4618 5.47159C27.5802 5.70833 27.6394 5.96875 27.6394 6.25284V6.63636C27.6394 6.91809 27.5802 7.17732 27.4618 7.41406C27.3435 7.6508 27.1694 7.84138 26.9398 7.9858C26.7125 8.13021 26.4332 8.20241 26.1017 8.20241C25.7703 8.20241 25.4898 8.13021 25.2601 7.9858C25.0305 7.84138 24.8565 7.6508 24.7381 7.41406C24.6221 7.17732 24.5641 6.91809 24.5641 6.63636ZM25.4909 6.25284V6.63636C25.4909 6.82339 25.5359 6.99503 25.6259 7.15128C25.7159 7.30753 25.8745 7.38565 26.1017 7.38565C26.3314 7.38565 26.4888 7.30871 26.574 7.15483C26.6616 6.99858 26.7054 6.82576 26.7054 6.63636V6.25284C26.7054 6.06345 26.664 5.89062 26.5811 5.73438C26.4983 5.57576 26.3385 5.49645 26.1017 5.49645C25.8792 5.49645 25.7218 5.57576 25.6294 5.73438C25.5371 5.89062 25.4909 6.06345 25.4909 6.25284ZM20.8674 2.47443V2.09091C20.8674 1.80682 20.9277 1.5464 21.0485 1.30966C21.1692 1.07292 21.3444 0.883522 21.574 0.741477C21.8037 0.597064 22.0819 0.524858 22.4086 0.524858C22.7424 0.524858 23.0229 0.597064 23.2502 0.741477C23.4798 0.883522 23.6526 1.07292 23.7686 1.30966C23.8846 1.5464 23.9426 1.80682 23.9426 2.09091V2.47443C23.9426 2.75852 23.8835 3.01894 23.7651 3.25568C23.6491 3.49006 23.4763 3.67827 23.2466 3.82031C23.017 3.96236 22.7376 4.03338 22.4086 4.03338C22.0748 4.03338 21.793 3.96236 21.5634 3.82031C21.3361 3.67827 21.1633 3.48887 21.0449 3.25213C20.9266 3.01539 20.8674 2.75616 20.8674 2.47443ZM21.8013 2.09091V2.47443C21.8013 2.66383 21.8451 2.83665 21.9327 2.9929C22.0227 3.14678 22.1813 3.22372 22.4086 3.22372C22.6358 3.22372 22.7921 3.14678 22.8773 2.9929C22.9649 2.83665 23.0087 2.66383 23.0087 2.47443V2.09091C23.0087 1.90152 22.9673 1.72869 22.8844 1.57244C22.8016 1.41383 22.6429 1.33452 22.4086 1.33452C22.1837 1.33452 22.0262 1.41383 21.9363 1.57244C21.8463 1.73106 21.8013 1.90388 21.8013 2.09091ZM21.2722 8L26.2722 0.727273H27.16L22.16 8H21.2722Z" fill="#F43F5E"/>
</svg>
