<svg width="30" height="9" viewBox="0 0 30 9" fill="none" xmlns="http://www.w3.org/2000/svg">
<path d="M2.8054 6.83523V1.92045H3.92045V6.83523H2.8054ZM0.90554 4.93537V3.82031H5.82031V4.93537H0.90554ZM9.90323 8.09943C9.42975 8.09943 9.00598 8.01065 8.63192 7.8331C8.25787 7.65317 7.96076 7.40696 7.74059 7.09446C7.52279 6.78196 7.40678 6.42448 7.39258 6.02202H8.67099C8.69466 6.32031 8.82369 6.56416 9.05806 6.75355C9.29244 6.94058 9.57416 7.03409 9.90323 7.03409C10.1613 7.03409 10.3909 6.97491 10.5922 6.85653C10.7934 6.73816 10.952 6.57363 11.068 6.36293C11.184 6.15223 11.2408 5.91193 11.2385 5.64205C11.2408 5.36742 11.1828 5.12358 11.0645 4.91051C10.9461 4.69744 10.7839 4.53054 10.5779 4.4098C10.372 4.28669 10.1352 4.22514 9.86772 4.22514C9.64992 4.22277 9.43567 4.26302 9.22496 4.34588C9.01426 4.42874 8.84736 4.53764 8.72425 4.67259L7.53462 4.47727L7.9146 0.727273H12.1333V1.82812H9.00479L8.79528 3.75639H8.83789C8.97283 3.59777 9.16341 3.46638 9.40962 3.36222C9.65584 3.25568 9.92572 3.20241 10.2193 3.20241C10.6596 3.20241 11.0526 3.30658 11.3983 3.51491C11.7439 3.72088 12.0162 4.00497 12.215 4.36719C12.4139 4.7294 12.5133 5.1437 12.5133 5.61009C12.5133 6.09067 12.402 6.51918 12.1795 6.8956C11.9593 7.26965 11.6528 7.56439 11.2598 7.77983C10.8691 7.9929 10.417 8.09943 9.90323 8.09943ZM14.2649 8.07812C14.0495 8.07812 13.8648 8.00237 13.7109 7.85085C13.5571 7.69934 13.4813 7.51468 13.4837 7.29688C13.4813 7.08381 13.5571 6.90152 13.7109 6.75C13.8648 6.59848 14.0495 6.52273 14.2649 6.52273C14.4732 6.52273 14.6544 6.59848 14.8082 6.75C14.9645 6.90152 15.0438 7.08381 15.0462 7.29688C15.0438 7.44129 15.0059 7.57268 14.9325 7.69105C14.8615 7.80942 14.7668 7.90412 14.6484 7.97514C14.5324 8.0438 14.4046 8.07812 14.2649 8.07812ZM18.7642 8.13849C18.1795 8.13849 17.6776 7.99053 17.2585 7.6946C16.8419 7.39631 16.5211 6.96662 16.2962 6.40554C16.0736 5.84209 15.9624 5.16383 15.9624 4.37074C15.9647 3.57765 16.0772 2.90294 16.2997 2.34659C16.5246 1.78788 16.8454 1.36174 17.2621 1.06818C17.6811 0.774621 18.1818 0.627841 18.7642 0.627841C19.3466 0.627841 19.8473 0.774621 20.2663 1.06818C20.6854 1.36174 21.0062 1.78788 21.2287 2.34659C21.4536 2.9053 21.5661 3.58002 21.5661 4.37074C21.5661 5.16619 21.4536 5.84564 21.2287 6.40909C21.0062 6.97017 20.6854 7.39867 20.2663 7.6946C19.8497 7.99053 19.349 8.13849 18.7642 8.13849ZM18.7642 7.02699C19.2188 7.02699 19.5774 6.80327 19.8402 6.35582C20.1054 5.90601 20.2379 5.24432 20.2379 4.37074C20.2379 3.79309 20.1776 3.30777 20.0568 2.91477C19.9361 2.52178 19.7656 2.22585 19.5455 2.02699C19.3253 1.82576 19.0649 1.72514 18.7642 1.72514C18.312 1.72514 17.9545 1.95005 17.6918 2.39986C17.429 2.8473 17.2964 3.50426 17.294 4.37074C17.2917 4.95076 17.3497 5.43845 17.468 5.83381C17.5888 6.22917 17.7592 6.52746 17.9794 6.72869C18.1996 6.92756 18.4612 7.02699 18.7642 7.02699ZM26.6344 6.63636V6.25284C26.6344 5.97112 26.6936 5.71188 26.812 5.47514C26.9327 5.2384 27.1079 5.04782 27.3375 4.90341C27.5672 4.759 27.8453 4.68679 28.1721 4.68679C28.5082 4.68679 28.79 4.759 29.0172 4.90341C29.2445 5.04545 29.4161 5.23485 29.5321 5.47159C29.6505 5.70833 29.7097 5.96875 29.7097 6.25284V6.63636C29.7097 6.91809 29.6505 7.17732 29.5321 7.41406C29.4138 7.6508 29.2398 7.84138 29.0101 7.9858C28.7828 8.13021 28.5035 8.20241 28.1721 8.20241C27.8406 8.20241 27.5601 8.13021 27.3304 7.9858C27.1008 7.84138 26.9268 7.6508 26.8084 7.41406C26.6924 7.17732 26.6344 6.91809 26.6344 6.63636ZM27.5613 6.25284V6.63636C27.5613 6.82339 27.6062 6.99503 27.6962 7.15128C27.7862 7.30753 27.9448 7.38565 28.1721 7.38565C28.4017 7.38565 28.5591 7.30871 28.6444 7.15483C28.7319 6.99858 28.7757 6.82576 28.7757 6.63636V6.25284C28.7757 6.06345 28.7343 5.89062 28.6515 5.73438C28.5686 5.57576 28.4088 5.49645 28.1721 5.49645C27.9495 5.49645 27.7921 5.57576 27.6998 5.73438C27.6074 5.89062 27.5613 6.06345 27.5613 6.25284ZM22.9377 2.47443V2.09091C22.9377 1.80682 22.998 1.5464 23.1188 1.30966C23.2395 1.07292 23.4147 0.883522 23.6444 0.741477C23.874 0.597064 24.1522 0.524858 24.4789 0.524858C24.8127 0.524858 25.0932 0.597064 25.3205 0.741477C25.5501 0.883522 25.723 1.07292 25.839 1.30966C25.955 1.5464 26.013 1.80682 26.013 2.09091V2.47443C26.013 2.75852 25.9538 3.01894 25.8354 3.25568C25.7194 3.49006 25.5466 3.67827 25.3169 3.82031C25.0873 3.96236 24.8079 4.03338 24.4789 4.03338C24.1451 4.03338 23.8633 3.96236 23.6337 3.82031C23.4064 3.67827 23.2336 3.48887 23.1152 3.25213C22.9969 3.01539 22.9377 2.75616 22.9377 2.47443ZM23.8716 2.09091V2.47443C23.8716 2.66383 23.9154 2.83665 24.003 2.9929C24.093 3.14678 24.2516 3.22372 24.4789 3.22372C24.7061 3.22372 24.8624 3.14678 24.9476 2.9929C25.0352 2.83665 25.079 2.66383 25.079 2.47443V2.09091C25.079 1.90152 25.0376 1.72869 24.9547 1.57244C24.8719 1.41383 24.7132 1.33452 24.4789 1.33452C24.254 1.33452 24.0965 1.41383 24.0066 1.57244C23.9166 1.73106 23.8716 1.90388 23.8716 2.09091ZM23.3425 8L28.3425 0.727273H29.2303L24.2303 8H23.3425Z" fill="#10B981"/>
</svg>
